<svg xmlns="http://www.w3.org/2000/svg" xmlns:xlink="http://www.w3.org/1999/xlink" version="1.1" width="256" height="256" viewBox="0 0 256 256" xml:space="preserve">
<g style="stroke: none; stroke-width: 0; stroke-dasharray: none; stroke-linecap: butt; stroke-linejoin: miter; stroke-miterlimit: 10; fill: none; fill-rule: nonzero; opacity: 1;" transform="translate(1.4065934065934016 1.4065934065934016) scale(2.81 2.81)">
	<ellipse cx="44.996" cy="83.309" rx="30.076" ry="6.689" style="stroke: none; stroke-width: 1; stroke-dasharray: none; stroke-linecap: butt; stroke-linejoin: miter; stroke-miterlimit: 10; fill: rgb(4,219,120); fill-rule: nonzero; opacity: 1;" transform=" matrix(1 0 0 1 0 0) "/>
	<path d="M 45 83.293 c -1.31 0 -2.522 -0.692 -3.188 -1.819 l -4.058 -6.864 c -8.333 -14.086 -16.203 -27.392 -18.891 -32.788 c -1.954 -4.008 -2.938 -8.287 -2.938 -12.747 C 15.925 13.043 28.968 0 45 0 c 16.032 0 29.075 13.043 29.075 29.075 c 0 4.456 -0.983 8.735 -2.922 12.717 c -0.023 0.048 -0.049 0.096 -0.074 0.143 c -2.74 5.468 -10.56 18.688 -18.836 32.678 l -4.055 6.861 C 47.522 82.601 46.31 83.293 45 83.293 z" style="stroke: none; stroke-width: 1; stroke-dasharray: none; stroke-linecap: butt; stroke-linejoin: miter; stroke-miterlimit: 10; fill: rgb(4,136,219); fill-rule: nonzero; opacity: 1;" transform=" matrix(1 0 0 1 0 0) " stroke-linecap="round"/>
	<path d="M 45 42.274 c -7.843 0 -14.223 -6.38 -14.223 -14.223 S 37.157 13.828 45 13.828 c 7.842 0 14.223 6.381 14.223 14.223 S 52.842 42.274 45 42.274 z" style="stroke: none; stroke-width: 1; stroke-dasharray: none; stroke-linecap: butt; stroke-linejoin: miter; stroke-miterlimit: 10; fill: rgb(255,255,255); fill-rule: nonzero; opacity: 1;" transform=" matrix(1 0 0 1 0 0) " stroke-linecap="round"/>
</g>
</svg>